# xmcd
#
# Track frame offsets:
# 150
# 20722
# 47105
# 59917
# 72592
# 89717
# 103760
# 121080
# 135725
# 148367
# 166170
# 173540
# 189980
#
# Disc length: 2732 seconds
#
# Revision: 0
# Processed by: cddbd v1.5.1PL0 Copyright (c) Steve Scherf et al.
# Submitted via: Axialis_AX_CDPlayer 2.6
#
DISCID=c60aaa0d
DTITLE=Philadelphia Jerry Ricks and Oscar Klein - Blues session
DYEAR=1900
DGENRE=
TTITLE0=I am your hoochie coochie man
TTITLE1=J and K rag
TTITLE2=Pistol slappin' mama
TTITLE3=Johnny Mae
TTITLE4=One for Pee Wee
TTITLE5=Frankie
TTITLE6=Boogie in the rough
TTITLE7=Trouble in mind
TTITLE8=Mezz and Tommy
TTITLE9=Special Agent
TTITLE10=Stuttgart rag
TTITLE11=Sittin' on top of the world
TTITLE12=Ain't she sweet
EXTD=
EXTT0=
EXTT1=
EXTT2=
EXTT3=
EXTT4=
EXTT5=
EXTT6=
EXTT7=
EXTT8=
EXTT9=
EXTT10=
EXTT11=
EXTT12=
PLAYORDER=
